<?xml version="1.0" standalone="no"?>
<!DOCTYPE svg PUBLIC "-//W3C//DTD SVG 20010904//EN"
 "http://www.w3.org/TR/2001/REC-SVG-20010904/DTD/svg10.dtd">
<svg version="1.0" xmlns="http://www.w3.org/2000/svg"
 width="87.000000pt" height="87.000000pt" viewBox="0 0 87.000000 87.000000"
 preserveAspectRatio="xMidYMid meet">
<metadata>
Created by potrace 1.11, written by Peter Selinger 2001-2013
</metadata>
<g transform="translate(0.000000,87.000000) scale(0.100000,-0.100000)"
fill="#000000" stroke="none">
<path d="M130 753 c0 -4 66 -152 147 -330 l147 -323 46 0 46 0 27 63 28 64
-123 266 -123 267 -97 0 c-54 0 -98 -3 -98 -7z"/>
<path d="M623 745 c-38 -16 -53 -42 -53 -88 0 -72 74 -116 138 -83 38 20 52
44 52 88 0 36 -22 69 -57 87 -28 14 -41 13 -80 -4z"/>
</g>
</svg>
